<svg xmlns:dc="http://purl.org/dc/elements/1.1/" xmlns:cc="http://creativecommons.org/ns#" xmlns:rdf="http://www.w3.org/1999/02/22-rdf-syntax-ns#" xmlns:svg="http://www.w3.org/2000/svg" xmlns="http://www.w3.org/2000/svg" xmlns:sodipodi="http://sodipodi.sourceforge.net/DTD/sodipodi-0.dtd" xmlns:inkscape="http://www.inkscape.org/namespaces/inkscape" version="1.1" x="0px" y="0px" viewBox="0 0 100 100"><g transform="translate(0,-952.36218)"><path style="font-size:medium;font-style:normal;font-variant:normal;font-weight:normal;font-stretch:normal;text-indent:0;text-align:start;text-decoration:none;line-height:normal;letter-spacing:normal;word-spacing:normal;text-transform:none;direction:ltr;block-progression:tb;writing-mode:lr-tb;text-anchor:start;baseline-shift:baseline;opacity:1;color:#000000;fill:#000000;fill-opacity:1;stroke:none;stroke-width:3.82352947999999990;marker:none;visibility:visible;display:inline;overflow:visible;enable-background:accumulate;font-family:Sans;-inkscape-font-specification:Sans" d="M 38.84375 7 A 1.0001 1.0001 0 0 0 38.59375 7.09375 L 27.59375 12.09375 A 1.0001 1.0001 0 0 0 27.03125 13.21875 L 29.375 24.3125 C 27.488852 25.82624 25.794877 27.51924 24.28125 29.40625 L 13.21875 27.0625 A 1.0001 1.0001 0 0 0 12.09375 27.625 L 7.09375 38.625 A 1.0001 1.0001 0 0 0 7.4375 39.84375 L 17.1875 46.71875 C 17.080093 47.79927 17 48.8882 17 50 C 17 51.1158 17.0794 52.2221 17.1875 53.3125 L 7.4375 60.1875 A 1.0001 1.0001 0 0 0 7.09375 61.40625 L 12.09375 72.40625 A 1.0001 1.0001 0 0 0 13.21875 72.96875 L 24.28125 70.625 C 25.795327 72.5128 27.487702 74.20465 29.375 75.71875 L 27.03125 86.8125 A 1.0001 1.0001 0 0 0 27.59375 87.9375 L 38.59375 92.9375 A 1.0001 1.0001 0 0 0 39.8125 92.59375 L 46.6875 82.8125 C 47.777971 82.9206 48.883911 83 50 83 C 51.116091 83 52.22203 82.921 53.3125 82.8125 L 60.1875 92.59375 A 1.0001 1.0001 0 0 0 61.40625 92.9375 L 72.40625 87.9375 A 1.0001 1.0001 0 0 0 72.96875 86.8125 L 70.5 75.125 A 1.0001 1.0001 0 1 0 68.5625 75.5625 L 70.875 86.46875 L 61.34375 90.78125 L 54.59375 81.21875 A 1.0001 1.0001 0 0 0 53.65625 80.78125 C 52.457279 80.92225 51.239866 81 50 81 C 48.760135 81 47.542719 80.92205 46.34375 80.78125 A 1.0001 1.0001 0 0 0 45.40625 81.21875 L 38.65625 90.78125 L 29.125 86.46875 L 31.4375 75.5625 A 1.0001 1.0001 0 0 0 31.09375 74.5625 C 28.982895 72.9331 27.066095 71.01715 25.4375 68.90625 A 1.0001 1.0001 0 0 0 24.4375 68.5625 L 13.5625 70.875 L 9.25 61.34375 L 18.78125 54.59375 A 1.0001 1.0001 0 0 0 19.21875 53.65625 C 19.077854 52.45765 19 51.2393 19 50 C 19 48.7644 19.07833 47.57256 19.21875 46.375 A 1.0001 1.0001 0 0 0 18.78125 45.4375 L 9.25 38.6875 L 13.5625 29.15625 L 24.4375 31.46875 A 1.0001 1.0001 0 0 0 25.4375 31.125 C 27.064643 29.016 28.9848 27.09731 31.09375 25.46875 A 1.0001 1.0001 0 0 0 31.4375 24.46875 L 29.125 13.5625 L 38.65625 9.25 L 45.40625 18.8125 A 1.0001 1.0001 0 0 0 46.34375 19.25 C 47.559194 19.10707 48.776437 19 50 19 C 51.223564 19 52.440805 19.10707 53.65625 19.25 A 1.0001 1.0001 0 0 0 54.59375 18.8125 L 61.34375 9.25 L 70.875 13.5625 L 68.5625 24.46875 A 1.0001 1.0001 0 0 0 68.90625 25.46875 C 71.0152 27.09731 72.935357 29.016 74.5625 31.125 A 1.0001 1.0001 0 0 0 75.5625 31.46875 L 86.4375 29.15625 L 90.75 38.6875 L 81.21875 45.4375 A 1.0001 1.0001 0 0 0 80.78125 46.375 C 80.921666 47.57256 81 48.7644 81 50 C 81 51.2393 80.92215 52.45775 80.78125 53.65625 A 1.0001 1.0001 0 0 0 81.21875 54.59375 L 90.75 61.34375 L 86.4375 70.875 L 75.5625 68.5625 A 1.0001 1.0001 0 1 0 75.125 70.5 L 86.78125 72.96875 A 1.0001 1.0001 0 0 0 87.90625 72.40625 L 92.90625 61.40625 A 1.0001 1.0001 0 0 0 92.5625 60.1875 L 82.8125 53.3125 C 82.920606 52.2221 83 51.1158 83 50 C 83 48.8882 82.91991 47.79922 82.8125 46.71875 L 92.5625 39.84375 A 1.0001 1.0001 0 0 0 92.90625 38.625 L 87.90625 27.625 A 1.0001 1.0001 0 0 0 86.78125 27.0625 L 75.71875 29.40625 C 74.205123 27.51924 72.511148 25.82624 70.625 24.3125 L 72.96875 13.21875 A 1.0001 1.0001 0 0 0 72.40625 12.09375 L 61.40625 7.09375 A 1.0001 1.0001 0 0 0 60.1875 7.4375 L 53.3125 17.21875 C 52.231621 17.10451 51.130024 17 50 17 C 48.869977 17 47.768379 17.10451 46.6875 17.21875 L 39.8125 7.4375 A 1.0001 1.0001 0 0 0 38.84375 7 z M 50 32 C 40.070724 32 32 40.07076 32 50 C 32 59.9293 40.070724 68 50 68 C 59.929276 68 68 59.9293 68 50 C 68 40.07076 59.929276 32 50 32 z M 50 34 C 58.8484 34 66 41.15164 66 50 C 66 58.8484 58.8484 66 50 66 C 41.151599 66 34 58.8484 34 50 C 34 41.15164 41.151599 34 50 34 z " transform="translate(0,952.36218)"/></g></svg>