<svg xmlns="http://www.w3.org/2000/svg" viewBox="0 0 100 125" xml:space="preserve"><path d="M94.4 31.4c.3 0 .6-.3.6-.7 0-.3-.4-.6-.7-.6-13.5 1.5-27.2 1-40.6-1.4V20H65v3.1c0 .3.3.6.6.6s.6-.3.6-.6v-3.8c0-.3-.2-.5-.4-.6h-.1l-12.1-4.8-1.8-8.4c0-.3-.3-.5-.5-.5h-2.5c-.3 0-.5.2-.6.5l-1.8 8.4-12.2 4.9h-.1l-.1.1v.1l-.1.1v4c0 .3.3.6.6.6s.6-.3.6-.6V20h11.3v7.1c-3.9-1-7.8-2.1-11.7-3.4h-.4C25 26.8 15.4 29 5.7 30.1c-.3 0-.6.3-.6.7 0 .3.3.6.6.6h.1c9.8-1.1 19.4-3.3 28.7-6.4 3.9 1.3 7.9 2.4 11.9 3.4v.6l-12.1 4.8h-.1l-.1.1v.1l-.1.1v4c0 .3.3.6.6.6s.6-.3.6-.6V35h11.3v7.1c-3.9-1-7.8-2.1-11.7-3.4h-.4c-9.3 3.1-18.9 5.3-28.6 6.4-.3 0-.6.3-.6.7 0 .3.3.6.6.6h.1c9.8-1.1 19.4-3.3 28.7-6.4 3.9 1.3 7.9 2.4 11.9 3.4v.6l-12.1 4.8h-.1l-.1.1v.1l-.1.1v4c0 .3.3.6.6.6s.6-.3.6-.6V50h11.3v4.3l-1 2.7c-3.7-.9-7.4-2-11-3.2h-.4c-9.3 3.1-18.9 5.3-28.6 6.4-.3 0-.6.3-.6.7 0 .3.3.6.6.6h.1c9.8-1.1 19.4-3.3 28.7-6.4 3.6 1.2 7.2 2.3 10.9 3.2l-.3 1-1.3 5-.6 2.5-1.9 7.5-5 20c-.1.3.1.6.3.7.2.1.5.1.7-.1L50 82.7l12.7 12.1.4.2c.3 0 .6-.3.6-.6l-.1-.3-5-19.9-1.9-7.5-.6-2.5-1-4a143.7 143.7 0 0 0 39.2 1.1c.3 0 .6-.3.6-.7 0-.3-.4-.6-.7-.6-13.1 1.5-26.4 1-39.4-1.2l-1.2-4.6V50H65v3.1c0 .3.3.6.6.6s.6-.3.6-.6v-3.8c0-.3-.2-.5-.4-.6h-.1l-7.5-3a141.7 141.7 0 0 0 36.2.6c.3 0 .6-.3.6-.7 0-.3-.4-.6-.7-.6-13.5 1.5-27.2 1-40.6-1.4V35H65v3.1c0 .3.3.6.6.6s.6-.3.6-.6v-3.8c0-.3-.2-.5-.4-.6h-.1l-7.5-3a141.7 141.7 0 0 0 36.2.7zM60 17.8l2.4 1H60v-1zm-1.2 1h-2.4l2.4-1v1zm-5-3.5 3.9 1.6-3.9 1.6v-3.2zM53.4 58l-2.2-1.5 1.6-1.1.6 2.6zm.7 11.8-2.5-2.3h3.6l-1.1 2.3zm2.4 4h-5.9v-5.4l5.9 5.4zM50 66.2l-4.2-1.8 4.2-2.1 4.2 2.1-4.2 1.8zm-.6 2.1v5.4h-5.9l5.9-5.4zm-4.6-.8h3.6l-2.5 2.3-1.1-2.3zm2.1-8.2.8-.5 4.6 1-2.3 1.1-3.1-1.6zm4.4-40.5h-2.7l1.3-1.1 1.4 1.1zM48.7 15h2.7L50 16.1 48.7 15zm2.6 5L50 21.1 48.7 20h2.6zm1.2.7v2.4L51 21.9l1.5-1.2zm-.4 3.7L50 26.1l-2.1-1.7 2.1-1.7 2.1 1.7zm.4 1.3v2.4L51 26.9l1.5-1.2zm-2.5 2 .5.4-.8-.2.3-.2zm1.8 1.9L50 31.1l-2.1-1.7.5-.4 3.4.6zm.7 1.1v2.4L51 31.9l1.5-1.2zm-1.2 3.1h-2.7l1.3-1.1 1.4 1.1zm1.2 1.9v2.4L51 36.9l1.5-1.2zm-1.2-.7L50 36.1 48.7 35h2.6zm.8 4.4L50 41.1l-2.1-1.7 2.1-1.7 2.1 1.7zm.4 1.3v2.4L51 41.9l1.5-1.2zm-2.5 2 .5.4-.8-.2.3-.2zm1.8 1.9L50 46.1l-2.1-1.7.5-.4 3.4.6zm.7 1.1v2.4L51 46.9l1.5-1.2zm-1.2 3.1h-2.7l1.3-1.1 1.4 1.1zm1.2 1.9v2.4L51 51.9l1.5-1.2zm-1.2-.7L50 51.1 48.7 50h2.6zm0 3.8h-2.7l1.3-1.1 1.4 1.1zm-.2 1.2-1.1.7-1.1-.7h2.2zm.6 3.3-2.6-.5.9-.6 1.7 1.1zm.8-40.2L51 16.9l1.5-1.2v2.4zM51.1 7.9l.5 2.3-.9-1.6.4-.7zm-.6-1.6-.5 1-.5-1h1zm-1.6 1.6.4.7-.9 1.6.5-2.3zm1.1 2 2.1 3.9h-4.2L50 9.9zm-2.5 5.8 1.5 1.2-1.5 1.2v-2.4zm0 5 1.5 1.2-1.5 1.2v-2.4zm0 5 1.5 1.2-.9.7-.6-.1v-1.8zm0 5 1.5 1.2-1.5 1.2v-2.4zm0 5 1.5 1.2-1.5 1.2v-2.4zm0 5 1.5 1.2-.9.7-.6-.1v-1.8zm0 5 1.5 1.2-1.5 1.2v-2.4zm0 5 1.5 1.2-1.5 1.2v-2.4zm-.2 4.7 1.6 1.1-1.4 1-.6-.1.4-2zM40 18.8h-2.4l2.4-1v1zm1.3 0v-1l2.4 1h-2.4zm1-1.9 3.9-1.6v3.2l-3.9-1.6zM40 33.8h-2.4l2.4-1v1zm1.3 0v-1l2.4 1h-2.4zm1-1.9 3.9-1.6v3.2l-3.9-1.6zM40 48.8h-2.4l2.4-1v1zm1.3 0v-1l2.4 1h-2.4zm1-1.9 3.9-1.6v3.2l-3.9-1.6zM46 60.3l2.6 1.3-3.3 1.6.7-2.9zm-1.2 4.9 2.3 1h-2.5l.2-1zm-.9 3.5.7 1.3h-1l.3-1.3zm-.6 2.6h1L43 72.5l.3-1.2zm-1.1 4.2 2.1 2h-2.6l.5-2zm-.8 3.3h2.1L41 80.5l.4-1.7zm4.3 0 2.7 2.5h-6.3l3.6-2.5zM38 92.4l2.3-9.3 3.4 3.8-5.7 5.5zm6.6-6.2-3.2-3.7h7.1l-3.9 3.7zM43.5 75h13.1L50 81l-6.5-6zm10.8 3.8 3.7 2.5h-6.3l2.6-2.5zm-2.7 3.7h7.1l-3.2 3.7-3.9-3.7zM62 92.4 56.3 87l3.4-3.8 2.3 9.2zm-3-11.9-2.6-1.7h2.1l.5 1.7zm-.7-3h-2.6l2.1-2 .5 2zm-1.3-5-1.4-1.2h1l.4 1.2zm-.6-2.5h-1l.7-1.3.3 1.3zm-1.2-4.8.3 1H53l2.2-1zM54 60.3l.7 2.9-3.3-1.6 2.6-1.3zm6-12.5 2.4 1H60v-1zm-1.2 0v1h-2.4l2.4-1zm-1.1-.9-3.9 1.6v-3.2l3.9 1.6zm-3.9-16.6 3.9 1.6-3.9 1.6v-3.2zm6.2 2.5 2.4 1H60v-1zm-1.2 0v1h-2.4l2.4-1z"/></svg>