<svg xmlns="http://www.w3.org/2000/svg" xmlns:xlink="http://www.w3.org/1999/xlink" version="1.1" x="0px" y="0px" viewBox="0 0 100 100" enable-background="new 0 0 100 100" xml:space="preserve"><g><path d="M61.496,79.032H38.803c-1.693,0-3.07-1.377-3.07-3.07V24.038c0-1.692,1.377-3.07,3.07-3.07h10.385   c1.676,0,3.043,1.35,3.07,3.019c0.155,1.231,3.599,27.982,12.263,51.713l0.046,0.127v0.135   C64.566,77.655,63.189,79.032,61.496,79.032z M38.803,22.501c-0.848,0-1.538,0.689-1.538,1.537v51.924   c0,0.849,0.69,1.538,1.538,1.538h22.693c0.808,0,1.47-0.624,1.533-1.416c-8.848-24.306-12.265-51.678-12.298-51.952l-0.006-0.094   c0-0.848-0.69-1.537-1.538-1.537H38.803z"/></g><g><path d="M89.153,59.62c-1.401,0-2.371-0.648-3.311-1.275c-0.887-0.592-1.724-1.15-2.947-1.15c-1.135,0-1.937,0.478-2.864,1.028   c-1.1,0.656-2.347,1.397-4.286,1.397c-1.938,0-3.083-0.739-4.094-1.393c-0.861-0.554-1.605-1.033-2.802-1.033   c-1.434,0-2.687,0.669-3.896,1.315c-1.069,0.57-2.08,1.11-3.127,1.11c-0.424,0-0.766-0.344-0.766-0.767s0.342-0.766,0.766-0.766   c0.663,0,1.508-0.452,2.404-0.93c1.313-0.703,2.803-1.496,4.619-1.496c1.648,0,2.702,0.68,3.633,1.279   c0.914,0.59,1.777,1.146,3.263,1.146c1.519,0,2.482-0.574,3.502-1.181c1.028-0.612,2.091-1.245,3.648-1.245   c1.688,0,2.809,0.748,3.798,1.408c0.817,0.547,1.523,1.018,2.46,1.018c0.423,0,0.767,0.343,0.767,0.766S89.576,59.62,89.153,59.62z   "/></g><g><path d="M94.26,75.467c-1.4,0-2.371-0.646-3.31-1.274c-0.886-0.59-1.723-1.15-2.946-1.15c-1.137,0-1.937,0.477-2.864,1.03   c-1.1,0.653-2.348,1.395-4.287,1.395c-1.936,0-3.082-0.738-4.094-1.39c-0.859-0.557-1.604-1.035-2.802-1.035   c-1.434,0-2.686,0.669-3.897,1.315c-1.069,0.572-2.078,1.109-3.126,1.109c-0.423,0-0.767-0.341-0.767-0.766   c0-0.423,0.344-0.765,0.767-0.765c0.664,0,1.51-0.452,2.405-0.931c1.313-0.701,2.801-1.497,4.618-1.497   c1.649,0,2.704,0.681,3.633,1.282c0.915,0.588,1.777,1.146,3.263,1.146c1.519,0,2.482-0.574,3.504-1.182   c1.027-0.613,2.091-1.246,3.647-1.246c1.688,0,2.809,0.748,3.797,1.408c0.818,0.547,1.523,1.02,2.459,1.02   c0.424,0,0.767,0.342,0.767,0.765C95.026,75.126,94.684,75.467,94.26,75.467z"/></g><g><path d="M91.706,67.582c-1.4,0-2.371-0.646-3.311-1.274c-0.886-0.593-1.723-1.151-2.945-1.151c-1.136,0-1.938,0.478-2.864,1.031   c-1.101,0.653-2.348,1.395-4.287,1.395c-1.937,0-3.083-0.739-4.093-1.391c-0.861-0.556-1.605-1.035-2.804-1.035   c-1.433,0-2.686,0.669-3.896,1.316c-1.069,0.571-2.079,1.109-3.127,1.109c-0.424,0-0.767-0.341-0.767-0.767   c0-0.423,0.343-0.764,0.767-0.764c0.663,0,1.509-0.452,2.404-0.932c1.313-0.7,2.802-1.496,4.618-1.496   c1.65,0,2.704,0.681,3.633,1.279c0.916,0.59,1.777,1.148,3.264,1.148c1.518,0,2.483-0.574,3.503-1.183   c1.028-0.612,2.091-1.245,3.648-1.245c1.688,0,2.808,0.748,3.797,1.408c0.817,0.547,1.523,1.02,2.459,1.02   c0.425,0,0.767,0.341,0.767,0.764C92.473,67.241,92.131,67.582,91.706,67.582z"/></g><g><path d="M33.066,36.632c-1.4,0-2.371-0.649-3.311-1.275c-0.886-0.592-1.723-1.152-2.946-1.152c-1.136,0-1.937,0.478-2.864,1.03   c-1.1,0.655-2.346,1.397-4.287,1.397c-1.936,0-3.082-0.739-4.093-1.392c-0.86-0.555-1.604-1.035-2.802-1.035   c-1.434,0-2.686,0.669-3.896,1.315c-1.07,0.572-2.08,1.111-3.127,1.111c-0.424,0-0.767-0.343-0.767-0.767   c0-0.422,0.343-0.766,0.767-0.766c0.663,0,1.51-0.451,2.404-0.929c1.313-0.702,2.802-1.497,4.619-1.497   c1.648,0,2.703,0.679,3.633,1.28c0.914,0.59,1.777,1.146,3.262,1.146c1.52,0,2.482-0.573,3.504-1.181   c1.027-0.612,2.091-1.245,3.647-1.245c1.688,0,2.81,0.749,3.798,1.408c0.817,0.546,1.523,1.018,2.459,1.018   c0.424,0,0.767,0.344,0.767,0.766C33.833,36.29,33.49,36.632,33.066,36.632z"/></g><g><path d="M33.066,52.481c-1.4,0-2.371-0.649-3.311-1.275c-0.886-0.592-1.723-1.15-2.946-1.15c-1.136,0-1.937,0.477-2.864,1.028   c-1.1,0.655-2.346,1.397-4.287,1.397c-1.936,0-3.082-0.739-4.093-1.391c-0.86-0.557-1.604-1.035-2.802-1.035   c-1.434,0-2.686,0.669-3.896,1.315c-1.07,0.569-2.08,1.11-3.127,1.11c-0.424,0-0.767-0.344-0.767-0.767s0.343-0.767,0.767-0.767   c0.663,0,1.51-0.452,2.404-0.929c1.313-0.701,2.802-1.497,4.619-1.497c1.648,0,2.703,0.681,3.633,1.279   c0.914,0.591,1.777,1.146,3.262,1.146c1.52,0,2.482-0.574,3.504-1.18c1.027-0.613,2.091-1.246,3.647-1.246   c1.688,0,2.81,0.748,3.798,1.408c0.817,0.548,1.523,1.018,2.459,1.018c0.424,0,0.767,0.344,0.767,0.767S33.49,52.481,33.066,52.481   z"/></g><g><path d="M33.066,44.596c-1.4,0-2.371-0.648-3.311-1.275c-0.886-0.593-1.723-1.152-2.946-1.152c-1.136,0-1.937,0.478-2.864,1.03   c-1.1,0.656-2.346,1.397-4.287,1.397c-1.936,0-3.082-0.739-4.093-1.392c-0.86-0.555-1.604-1.036-2.802-1.036   c-1.434,0-2.686,0.669-3.896,1.315c-1.07,0.572-2.08,1.112-3.127,1.112c-0.424,0-0.767-0.343-0.767-0.766s0.343-0.767,0.767-0.767   c0.663,0,1.51-0.451,2.404-0.929c1.313-0.702,2.802-1.496,4.619-1.496c1.648,0,2.703,0.679,3.633,1.279   c0.914,0.59,1.777,1.146,3.262,1.146c1.52,0,2.482-0.573,3.504-1.181c1.027-0.611,2.091-1.244,3.647-1.244   c1.688,0,2.81,0.748,3.798,1.408c0.817,0.546,1.523,1.017,2.459,1.017c0.424,0,0.767,0.344,0.767,0.767S33.49,44.596,33.066,44.596   z"/></g><g><path d="M33.066,59.84c-1.4,0-2.371-0.646-3.311-1.275c-0.886-0.593-1.723-1.15-2.946-1.15c-1.136,0-1.937,0.477-2.864,1.03   c-1.1,0.653-2.346,1.396-4.287,1.396c-1.936,0-3.082-0.739-4.093-1.391c-0.86-0.557-1.604-1.035-2.802-1.035   c-1.434,0-2.686,0.669-3.896,1.315c-1.07,0.572-2.08,1.11-3.127,1.11c-0.424,0-0.767-0.342-0.767-0.767   c0-0.423,0.343-0.765,0.767-0.765c0.663,0,1.51-0.452,2.404-0.931c1.313-0.701,2.802-1.497,4.619-1.497   c1.648,0,2.703,0.681,3.633,1.279c0.914,0.591,1.777,1.148,3.262,1.148c1.52,0,2.482-0.574,3.504-1.182   c1.027-0.613,2.091-1.246,3.647-1.246c1.688,0,2.81,0.748,3.798,1.408c0.817,0.548,1.523,1.02,2.459,1.02   c0.424,0,0.767,0.342,0.767,0.765C33.833,59.498,33.49,59.84,33.066,59.84z"/></g><g><path d="M33.066,75.688c-1.4,0-2.371-0.646-3.311-1.274c-0.886-0.593-1.723-1.151-2.946-1.151c-1.136,0-1.937,0.478-2.864,1.031   c-1.1,0.653-2.346,1.395-4.287,1.395c-1.936,0-3.082-0.739-4.093-1.39c-0.86-0.557-1.604-1.036-2.802-1.036   c-1.434,0-2.686,0.67-3.896,1.316c-1.07,0.571-2.08,1.109-3.127,1.109c-0.424,0-0.767-0.341-0.767-0.766   c0-0.423,0.343-0.765,0.767-0.765c0.663,0,1.51-0.452,2.404-0.932c1.313-0.7,2.802-1.496,4.619-1.496   c1.648,0,2.703,0.681,3.633,1.279c0.914,0.59,1.777,1.148,3.262,1.148c1.52,0,2.482-0.574,3.504-1.183   c1.027-0.612,2.091-1.245,3.647-1.245c1.688,0,2.81,0.748,3.798,1.408c0.817,0.547,1.523,1.02,2.459,1.02   c0.424,0,0.767,0.342,0.767,0.765C33.833,75.348,33.49,75.688,33.066,75.688z"/></g><g><path d="M33.066,67.804c-1.4,0-2.371-0.648-3.311-1.275c-0.886-0.592-1.723-1.15-2.946-1.15c-1.136,0-1.937,0.478-2.864,1.028   c-1.1,0.656-2.346,1.397-4.287,1.397c-1.936,0-3.082-0.739-4.093-1.393c-0.86-0.554-1.604-1.033-2.802-1.033   c-1.434,0-2.686,0.669-3.896,1.315c-1.07,0.57-2.08,1.11-3.127,1.11c-0.424,0-0.767-0.344-0.767-0.767s0.343-0.767,0.767-0.767   c0.663,0,1.51-0.451,2.404-0.929c1.313-0.701,2.802-1.496,4.619-1.496c1.648,0,2.703,0.68,3.633,1.279   c0.914,0.59,1.777,1.146,3.262,1.146c1.52,0,2.482-0.574,3.504-1.18c1.027-0.612,2.091-1.245,3.647-1.245   c1.688,0,2.81,0.748,3.798,1.408c0.817,0.547,1.523,1.017,2.459,1.017c0.424,0,0.767,0.344,0.767,0.767S33.49,67.804,33.066,67.804   z"/></g></svg>